<?xml version="1.0" standalone="no"?>
<!DOCTYPE svg PUBLIC "-//W3C//DTD SVG 20010904//EN"
 "http://www.w3.org/TR/2001/REC-SVG-20010904/DTD/svg10.dtd">
<svg version="1.0" xmlns="http://www.w3.org/2000/svg"
 width="260.000000pt" height="260.000000pt" viewBox="0 0 260.000000 260.000000"
 preserveAspectRatio="xMidYMid meet">
<metadata>
Created by potrace 1.14, written by Peter Selinger 2001-2017
</metadata>
<g transform="translate(0.000000,260.000000) scale(0.100000,-0.100000)"
fill="#000000" stroke="none">
<path d="M613 2273 c6 -21 14 -40 17 -43 4 -3 19 -45 34 -95 16 -49 34 -99 40
-110 6 -11 25 -62 41 -113 16 -51 32 -91 35 -90 6 3 129 145 243 282 42 51 93
109 141 163 l39 43 -301 0 -300 0 11 -37z"/>
<path d="M1472 2227 c40 -46 86 -99 103 -118 16 -19 37 -45 46 -59 19 -29 189
-224 198 -228 4 -1 20 39 36 90 16 51 35 102 41 113 6 11 24 61 40 110 15 50
30 92 34 95 3 3 11 22 17 43 l11 37 -300 0 -299 0 73 -83z"/>
<path d="M1150 2114 c-80 -92 -161 -187 -181 -213 -19 -25 -50 -62 -67 -81
-18 -19 -32 -38 -32 -42 0 -5 194 -8 430 -8 237 0 430 3 430 8 0 4 -14 23 -32
42 -17 19 -46 53 -62 75 -17 22 -43 54 -57 70 -15 17 -82 93 -149 170 -67 77
-125 141 -128 142 -4 2 -72 -72 -152 -163z"/>
<path d="M443 2163 c-39 -49 -91 -113 -117 -144 -25 -31 -46 -61 -46 -66 0 -6
-11 -18 -25 -27 -14 -9 -25 -21 -25 -27 0 -6 -21 -36 -46 -67 l-47 -57 273 -3
c150 -1 275 0 278 3 5 5 -38 147 -48 155 -3 3 -20 52 -38 110 -18 58 -42 123
-53 146 -10 23 -19 46 -19 53 0 25 -20 7 -87 -76z"/>
<path d="M2070 2239 c0 -7 -9 -30 -19 -53 -11 -23 -35 -88 -53 -146 -18 -58
-35 -107 -38 -110 -10 -8 -53 -150 -48 -155 3 -3 128 -4 278 -3 l272 3 -46 56
c-25 31 -46 61 -46 67 0 6 -11 19 -24 28 -14 8 -26 22 -28 29 -4 17 -230 295
-240 295 -5 0 -8 -5 -8 -11z"/>
<path d="M161 1653 c8 -10 25 -30 39 -44 14 -15 41 -46 60 -70 19 -23 84 -99
143 -168 118 -136 152 -177 194 -231 24 -30 85 -102 336 -393 17 -20 44 -50
59 -66 16 -16 28 -34 28 -39 0 -5 16 -24 35 -41 19 -17 35 -34 35 -38 1 -15
70 -86 77 -79 4 4 3 10 -3 14 -6 4 -26 52 -44 107 -17 55 -35 105 -40 110 -4
6 -20 51 -35 100 -16 50 -32 95 -37 101 -5 7 -22 56 -39 110 -17 55 -35 104
-39 109 -10 13 -60 163 -60 181 0 8 -4 14 -9 14 -5 0 -13 10 -16 23 -21 73
-60 193 -65 197 -3 3 -14 31 -25 63 l-19 57 -294 0 c-279 0 -294 -1 -281 -17z"/>
<path d="M830 1662 c0 -4 6 -16 14 -27 7 -11 26 -60 42 -110 15 -49 31 -92 34
-95 4 -3 22 -51 39 -107 18 -57 37 -106 42 -109 6 -3 8 -12 5 -19 -3 -8 -2
-15 2 -17 4 -2 18 -37 31 -78 13 -41 27 -79 31 -85 4 -5 22 -55 40 -110 17
-55 35 -104 39 -110 5 -5 21 -50 37 -100 16 -49 31 -92 35 -95 3 -3 21 -53 39
-112 19 -60 37 -108 40 -108 3 0 21 48 40 107 18 60 36 110 39 113 4 3 19 46
35 95 16 50 32 95 37 100 4 6 22 55 39 110 18 55 36 105 40 110 4 6 20 51 35
100 16 50 34 99 40 110 7 11 25 61 40 110 16 50 31 92 35 95 3 3 17 39 30 80
12 41 31 91 41 110 11 19 19 38 19 42 0 5 -211 8 -470 8 -258 0 -470 -3 -470
-8z"/>
<path d="M1846 1613 c-10 -32 -21 -60 -25 -63 -4 -3 -22 -53 -41 -112 -19 -60
-38 -108 -42 -108 -4 0 -8 -6 -8 -14 0 -18 -50 -168 -60 -181 -4 -5 -22 -54
-39 -109 -17 -54 -34 -103 -39 -110 -5 -6 -21 -51 -37 -101 -15 -49 -31 -94
-35 -100 -5 -5 -23 -55 -40 -110 -18 -55 -37 -101 -41 -103 -5 -2 -9 -8 -9
-14 0 -5 4 -8 8 -6 11 4 142 155 142 164 0 3 12 19 28 35 33 35 59 65 203 234
61 72 132 154 158 183 25 30 50 61 55 70 5 10 19 26 30 38 12 11 39 42 61 69
56 67 251 294 284 330 64 71 87 65 -241 65 l-294 0 -18 -57z"/>
</g>
</svg>
